<svg width="15" height="15" viewBox="0 0 15 15" fill="none" xmlns="http://www.w3.org/2000/svg">
<g clip-path="url(#clip0)">
<path d="M14.0982 6.44707C14.0368 6.43711 13.9747 6.43252 13.9125 6.43332H3.33034L3.56108 6.326C3.78663 6.21924 3.99182 6.07395 4.16747 5.8967L7.13498 2.92919C7.52581 2.5561 7.59148 1.95592 7.2906 1.50714C6.94042 1.02891 6.26887 0.925076 5.79061 1.27525C5.75197 1.30356 5.71525 1.33442 5.68074 1.36762L0.314526 6.73383C-0.104843 7.15273 -0.105212 7.83226 0.313688 8.25163C0.313956 8.2519 0.314258 8.2522 0.314526 8.25247L5.68074 13.6187C6.10044 14.0372 6.77997 14.0363 7.19854 13.6166C7.23147 13.5835 7.26223 13.5484 7.2906 13.5114C7.59148 13.0626 7.52581 12.4624 7.13498 12.0893L4.17283 9.11643C4.01537 8.9588 3.83432 8.82662 3.63621 8.7247L3.31424 8.57981H13.8535C14.4017 8.60017 14.8827 8.21719 14.9857 7.67828C15.0806 7.0932 14.6833 6.54199 14.0982 6.44707Z" fill="#EFF3FC"/>
</g>
<defs>
<clipPath id="clip0">
<rect width="15" height="15" fill="white"/>
</clipPath>
</defs>
</svg>
