<svg width="20" height="18" viewBox="0 0 20 18" fill="none" xmlns="http://www.w3.org/2000/svg">
<path d="M18.7976 7.59616C18.7158 7.58288 18.633 7.57675 18.5501 7.57782H4.44053L4.74819 7.43473C5.04892 7.29239 5.32251 7.09867 5.5567 6.86233L9.51339 2.90564C10.0345 2.4082 10.122 1.60796 9.72088 1.00958C9.25397 0.371943 8.35858 0.233495 7.72089 0.7004C7.66938 0.738143 7.62041 0.779283 7.5744 0.823555L0.41945 7.9785C-0.139709 8.53703 -0.140201 9.44307 0.418332 10.0022C0.418689 10.0026 0.419092 10.003 0.41945 10.0034L7.5744 17.1583C8.134 17.7163 9.04004 17.7151 9.59813 17.1555C9.64204 17.1114 9.68305 17.0646 9.72088 17.0152C10.122 16.4168 10.0345 15.6166 9.51339 15.1191L5.56386 11.1553C5.3539 10.9451 5.11251 10.7689 4.84836 10.633L4.41906 10.4398H18.4714C19.2024 10.4669 19.8437 9.95631 19.9811 9.23777C20.1076 8.45766 19.5778 7.72271 18.7976 7.59616Z" fill="#3A48ED"/>
</svg>
