<svg width="24" height="16" viewBox="0 0 24 16" fill="none" xmlns="http://www.w3.org/2000/svg">
<path fill-rule="evenodd" clip-rule="evenodd" d="M4 0.5V2.5H12V3.5H3C1.34315 3.5 0 4.84315 0 6.5V12.5C0 14.1569 1.34315 15.5 3 15.5H15C16.5731 15.5 17.8634 14.2892 17.9898 12.7487L24 13.5V5.5L17.9898 6.25127C17.8634 4.71078 16.5731 3.5 15 3.5H14V1.5C14 0.947715 13.5523 0.5 13 0.5H4ZM18 8.26556V10.7344L22 11.2344V7.76556L18 8.26556ZM16 6.5C16 5.94772 15.5523 5.5 15 5.5H3C2.44772 5.5 2 5.94772 2 6.5V12.5C2 13.0523 2.44772 13.5 3 13.5H15C15.5523 13.5 16 13.0523 16 12.5V6.5Z" fill="#3A48ED"/>
</svg>
